<svg width="64" height="64" viewBox="0 0 40 40" fill="none" xmlns="http://www.w3.org/2000/svg">
  <defs>
    <linearGradient id="sp-logo-bg" x1="0%" y1="0%" x2="100%" y2="100%">
      <stop offset="0%" stopColor="#1A2333" />
      <stop offset="100%" stopColor="#0B0F17" />
    </linearGradient>
    <linearGradient id="sp-logo-bolt" x1="0%" y1="0%" x2="100%" y2="100%">
      <stop offset="0%" stopColor="#14F195" />
      <stop offset="50%" stopColor="#00C9FF" />
      <stop offset="100%" stopColor="#9B6DFF" />
    </linearGradient>
    <linearGradient id="sp-logo-border" x1="0%" y1="0%" x2="100%" y2="100%">
      <stop offset="0%" stopColor="rgba(20, 241, 149, 0.8)" />
      <stop offset="50%" stopColor="rgba(0, 201, 255, 0.6)" />
      <stop offset="100%" stopColor="rgba(155, 109, 255, 0.4)" />
    </linearGradient>
  </defs>
  
  <rect x="2" y="2" width="36" height="36" rx="10" fill="url(#sp-logo-bg)" stroke="url(#sp-logo-border)" strokeWidth="1.5" />
  <path d="M11 10C11 8.89543 11.8954 8 13 8H22L29 15V29C29 30.1046 28.1046 31 27 31H13C11.8954 31 11 30.1046 11 29V10Z" fill="rgba(255, 255, 255, 0.05)" stroke="url(#sp-logo-bolt)" strokeWidth="1.5" />
  <path d="M22 8V15H29" stroke="url(#sp-logo-bolt)" strokeWidth="1.5" strokeLinejoin="round" />
  <path d="M21 12L14.5 20.5H19.5L18.5 27.5L25.5 19H20.5L21 12Z" fill="url(#sp-logo-bolt)" />
  <circle cx="27" cy="27" r="1.5" fill="#14F195" />
</svg>
